ISO-10303-21;
HEADER;
/* Generated by software containing ST-Developer
 * from STEP Tools, Inc. (www.steptools.com) 
 */
/* OPTION: using custom renumber hook */

FILE_DESCRIPTION(
/* description */ ('STEP AP242 Edition 2',
'CAx-IF Rec.Pracs.---Representation and Presentation of Product Manufa
cturing Information (PMI)---4.0---2014-10-13',
'CAx-IF Rec.Pracs.---3D Tessellated Geometry---0.4---2014-09-14','2;1',
'CAx-IF Rec.Pracs.---User Defined Attributes---1.5---2016-08-15'),
/* implementation_level */ '2;1');

FILE_NAME(
/* name */ 'Part Studio 1 (1)',
/* time_stamp */ '2026-05-28T16:54:28Z',
/* author */ (''),
/* organization */ (''),
/* preprocessor_version */ 'ST-DEVELOPER v20',
/* originating_system */ 'ONSHAPE BY PTC INC, 1.215',
/* authorisation */ '  ');

FILE_SCHEMA (('AP242_MANAGED_MODEL_BASED_3D_ENGINEERING_MIM_LF { 1 0 10303 442 3 1 4 }'));
ENDSEC;

DATA;
#10=SHAPE_REPRESENTATION_RELATIONSHIP('','',#591,#11);
#11=ADVANCED_BREP_SHAPE_REPRESENTATION('',(#589),#960);
#12=CIRCLE('',#600,0.001);
#13=CIRCLE('',#601,0.001);
#14=CIRCLE('',#610,0.001);
#15=CIRCLE('',#611,0.001);
#16=CIRCLE('',#616,0.0059);
#17=CIRCLE('',#617,0.0025);
#18=CIRCLE('',#618,0.0059);
#19=CIRCLE('',#620,0.0059);
#20=CIRCLE('',#624,0.0059);
#21=CIRCLE('',#627,0.0059);
#22=CIRCLE('',#630,0.0025);
#23=CIRCLE('',#633,0.0023);
#24=CIRCLE('',#635,0.0023);
#25=CYLINDRICAL_SURFACE('',#599,0.001);
#26=CYLINDRICAL_SURFACE('',#609,0.001);
#27=CYLINDRICAL_SURFACE('',#626,0.0059);
#28=CYLINDRICAL_SURFACE('',#629,0.0025);
#29=CYLINDRICAL_SURFACE('',#634,0.0023);
#30=ORIENTED_EDGE('',*,*,#190,.F.);
#31=ORIENTED_EDGE('',*,*,#191,.F.);
#32=ORIENTED_EDGE('',*,*,#192,.T.);
#33=ORIENTED_EDGE('',*,*,#193,.T.);
#34=ORIENTED_EDGE('',*,*,#194,.T.);
#35=ORIENTED_EDGE('',*,*,#195,.F.);
#36=ORIENTED_EDGE('',*,*,#196,.F.);
#37=ORIENTED_EDGE('',*,*,#191,.T.);
#38=ORIENTED_EDGE('',*,*,#197,.F.);
#39=ORIENTED_EDGE('',*,*,#198,.T.);
#40=ORIENTED_EDGE('',*,*,#199,.T.);
#41=ORIENTED_EDGE('',*,*,#200,.F.);
#42=ORIENTED_EDGE('',*,*,#201,.T.);
#43=ORIENTED_EDGE('',*,*,#202,.F.);
#44=ORIENTED_EDGE('',*,*,#203,.F.);
#45=ORIENTED_EDGE('',*,*,#204,.F.);
#46=ORIENTED_EDGE('',*,*,#205,.F.);
#47=ORIENTED_EDGE('',*,*,#206,.F.);
#48=ORIENTED_EDGE('',*,*,#207,.T.);
#49=ORIENTED_EDGE('',*,*,#208,.T.);
#50=ORIENTED_EDGE('',*,*,#195,.T.);
#51=ORIENTED_EDGE('',*,*,#209,.T.);
#52=ORIENTED_EDGE('',*,*,#210,.F.);
#53=ORIENTED_EDGE('',*,*,#211,.F.);
#54=ORIENTED_EDGE('',*,*,#212,.F.);
#55=ORIENTED_EDGE('',*,*,#213,.T.);
#56=ORIENTED_EDGE('',*,*,#214,.T.);
#57=ORIENTED_EDGE('',*,*,#215,.T.);
#58=ORIENTED_EDGE('',*,*,#216,.T.);
#59=ORIENTED_EDGE('',*,*,#217,.T.);
#60=ORIENTED_EDGE('',*,*,#218,.F.);
#61=ORIENTED_EDGE('',*,*,#219,.T.);
#62=ORIENTED_EDGE('',*,*,#220,.F.);
#63=ORIENTED_EDGE('',*,*,#221,.F.);
#64=ORIENTED_EDGE('',*,*,#222,.T.);
#65=ORIENTED_EDGE('',*,*,#223,.F.);
#66=ORIENTED_EDGE('',*,*,#224,.F.);
#67=ORIENTED_EDGE('',*,*,#210,.T.);
#68=ORIENTED_EDGE('',*,*,#225,.T.);
#69=ORIENTED_EDGE('',*,*,#226,.F.);
#70=ORIENTED_EDGE('',*,*,#227,.F.);
#71=ORIENTED_EDGE('',*,*,#223,.T.);
#72=ORIENTED_EDGE('',*,*,#228,.F.);
#73=ORIENTED_EDGE('',*,*,#193,.F.);
#74=ORIENTED_EDGE('',*,*,#229,.T.);
#75=ORIENTED_EDGE('',*,*,#226,.T.);
#76=ORIENTED_EDGE('',*,*,#192,.F.);
#77=ORIENTED_EDGE('',*,*,#196,.T.);
#78=ORIENTED_EDGE('',*,*,#208,.F.);
#79=ORIENTED_EDGE('',*,*,#230,.F.);
#80=ORIENTED_EDGE('',*,*,#211,.T.);
#81=ORIENTED_EDGE('',*,*,#224,.T.);
#82=ORIENTED_EDGE('',*,*,#227,.T.);
#83=ORIENTED_EDGE('',*,*,#229,.F.);
#84=ORIENTED_EDGE('',*,*,#190,.T.);
#85=ORIENTED_EDGE('',*,*,#228,.T.);
#86=ORIENTED_EDGE('',*,*,#225,.F.);
#87=ORIENTED_EDGE('',*,*,#222,.F.);
#88=ORIENTED_EDGE('',*,*,#209,.F.);
#89=ORIENTED_EDGE('',*,*,#231,.T.);
#90=ORIENTED_EDGE('',*,*,#197,.T.);
#91=ORIENTED_EDGE('',*,*,#194,.F.);
#92=ORIENTED_EDGE('',*,*,#212,.T.);
#93=ORIENTED_EDGE('',*,*,#230,.T.);
#94=ORIENTED_EDGE('',*,*,#207,.F.);
#95=ORIENTED_EDGE('',*,*,#232,.F.);
#96=ORIENTED_EDGE('',*,*,#233,.F.);
#97=ORIENTED_EDGE('',*,*,#234,.F.);
#98=ORIENTED_EDGE('',*,*,#235,.F.);
#99=ORIENTED_EDGE('',*,*,#236,.T.);
#100=ORIENTED_EDGE('',*,*,#237,.T.);
#101=ORIENTED_EDGE('',*,*,#238,.T.);
#102=ORIENTED_EDGE('',*,*,#217,.F.);
#103=ORIENTED_EDGE('',*,*,#239,.F.);
#104=ORIENTED_EDGE('',*,*,#235,.T.);
#105=ORIENTED_EDGE('',*,*,#240,.T.);
#106=ORIENTED_EDGE('',*,*,#241,.F.);
#107=ORIENTED_EDGE('',*,*,#242,.F.);
#108=ORIENTED_EDGE('',*,*,#202,.T.);
#109=ORIENTED_EDGE('',*,*,#243,.T.);
#110=ORIENTED_EDGE('',*,*,#244,.F.);
#111=ORIENTED_EDGE('',*,*,#245,.F.);
#112=ORIENTED_EDGE('',*,*,#241,.T.);
#113=ORIENTED_EDGE('',*,*,#246,.F.);
#114=ORIENTED_EDGE('',*,*,#237,.F.);
#115=ORIENTED_EDGE('',*,*,#247,.T.);
#116=ORIENTED_EDGE('',*,*,#244,.T.);
#117=ORIENTED_EDGE('',*,*,#236,.F.);
#118=ORIENTED_EDGE('',*,*,#239,.T.);
#119=ORIENTED_EDGE('',*,*,#216,.F.);
#120=ORIENTED_EDGE('',*,*,#248,.F.);
#121=ORIENTED_EDGE('',*,*,#203,.T.);
#122=ORIENTED_EDGE('',*,*,#242,.T.);
#123=ORIENTED_EDGE('',*,*,#245,.T.);
#124=ORIENTED_EDGE('',*,*,#247,.F.);
#125=ORIENTED_EDGE('',*,*,#234,.T.);
#126=ORIENTED_EDGE('',*,*,#246,.T.);
#127=ORIENTED_EDGE('',*,*,#243,.F.);
#128=ORIENTED_EDGE('',*,*,#240,.F.);
#129=ORIENTED_EDGE('',*,*,#201,.F.);
#130=ORIENTED_EDGE('',*,*,#249,.T.);
#131=ORIENTED_EDGE('',*,*,#218,.T.);
#132=ORIENTED_EDGE('',*,*,#238,.F.);
#133=ORIENTED_EDGE('',*,*,#249,.F.);
#134=ORIENTED_EDGE('',*,*,#200,.T.);
#135=ORIENTED_EDGE('',*,*,#250,.F.);
#136=ORIENTED_EDGE('',*,*,#219,.F.);
#137=ORIENTED_EDGE('',*,*,#251,.F.);
#138=ORIENTED_EDGE('',*,*,#252,.F.);
#139=ORIENTED_EDGE('',*,*,#253,.F.);
#140=ORIENTED_EDGE('',*,*,#254,.T.);
#141=ORIENTED_EDGE('',*,*,#255,.F.);
#142=ORIENTED_EDGE('',*,*,#205,.T.);
#143=ORIENTED_EDGE('',*,*,#256,.F.);
#144=ORIENTED_EDGE('',*,*,#214,.F.);
#145=ORIENTED_EDGE('',*,*,#257,.F.);
#146=ORIENTED_EDGE('',*,*,#213,.F.);
#147=ORIENTED_EDGE('',*,*,#233,.T.);
#148=ORIENTED_EDGE('',*,*,#231,.F.);
#149=ORIENTED_EDGE('',*,*,#221,.T.);
#150=ORIENTED_EDGE('',*,*,#258,.T.);
#151=ORIENTED_EDGE('',*,*,#198,.F.);
#152=ORIENTED_EDGE('',*,*,#204,.T.);
#153=ORIENTED_EDGE('',*,*,#248,.T.);
#154=ORIENTED_EDGE('',*,*,#215,.F.);
#155=ORIENTED_EDGE('',*,*,#256,.T.);
#156=ORIENTED_EDGE('',*,*,#259,.F.);
#157=ORIENTED_EDGE('',*,*,#232,.T.);
#158=ORIENTED_EDGE('',*,*,#206,.T.);
#159=ORIENTED_EDGE('',*,*,#220,.T.);
#160=ORIENTED_EDGE('',*,*,#250,.T.);
#161=ORIENTED_EDGE('',*,*,#199,.F.);
#162=ORIENTED_EDGE('',*,*,#258,.F.);
#163=ORIENTED_EDGE('',*,*,#251,.T.);
#164=ORIENTED_EDGE('',*,*,#257,.T.);
#165=ORIENTED_EDGE('',*,*,#259,.T.);
#166=ORIENTED_EDGE('',*,*,#255,.T.);
#167=ORIENTED_EDGE('',*,*,#260,.F.);
#168=ORIENTED_EDGE('',*,*,#261,.F.);
#169=ORIENTED_EDGE('',*,*,#262,.T.);
#170=ORIENTED_EDGE('',*,*,#254,.F.);
#171=ORIENTED_EDGE('',*,*,#263,.F.);
#172=ORIENTED_EDGE('',*,*,#264,.T.);
#173=ORIENTED_EDGE('',*,*,#260,.T.);
#174=ORIENTED_EDGE('',*,*,#253,.T.);
#175=ORIENTED_EDGE('',*,*,#265,.F.);
#176=ORIENTED_EDGE('',*,*,#266,.F.);
#177=ORIENTED_EDGE('',*,*,#263,.T.);
#178=ORIENTED_EDGE('',*,*,#252,.T.);
#179=ORIENTED_EDGE('',*,*,#262,.F.);
#180=ORIENTED_EDGE('',*,*,#267,.F.);
#181=ORIENTED_EDGE('',*,*,#265,.T.);
#182=ORIENTED_EDGE('',*,*,#268,.F.);
#183=ORIENTED_EDGE('',*,*,#261,.T.);
#184=ORIENTED_EDGE('',*,*,#264,.F.);
#185=ORIENTED_EDGE('',*,*,#266,.T.);
#186=ORIENTED_EDGE('',*,*,#267,.T.);
#187=ORIENTED_EDGE('',*,*,#269,.F.);
#188=ORIENTED_EDGE('',*,*,#268,.T.);
#189=ORIENTED_EDGE('',*,*,#269,.T.);
#190=EDGE_CURVE('',#270,#271,#323,.T.);
#191=EDGE_CURVE('',#272,#270,#324,.T.);
#192=EDGE_CURVE('',#272,#273,#325,.T.);
#193=EDGE_CURVE('',#273,#271,#326,.T.);
#194=EDGE_CURVE('',#270,#274,#327,.T.);
#195=EDGE_CURVE('',#275,#274,#328,.T.);
#196=EDGE_CURVE('',#272,#275,#329,.T.);
#197=EDGE_CURVE('',#276,#274,#330,.T.);
#198=EDGE_CURVE('',#276,#277,#331,.T.);
#199=EDGE_CURVE('',#277,#278,#332,.T.);
#200=EDGE_CURVE('',#279,#278,#333,.T.);
#201=EDGE_CURVE('',#279,#280,#334,.T.);
#202=EDGE_CURVE('',#281,#280,#335,.T.);
#203=EDGE_CURVE('',#282,#281,#336,.T.);
#204=EDGE_CURVE('',#283,#282,#337,.T.);
#205=EDGE_CURVE('',#284,#283,#338,.T.);
#206=EDGE_CURVE('',#285,#284,#339,.T.);
#207=EDGE_CURVE('',#285,#286,#340,.T.);
#208=EDGE_CURVE('',#286,#275,#341,.T.);
#209=EDGE_CURVE('',#287,#288,#342,.T.);
#210=EDGE_CURVE('',#289,#288,#343,.T.);
#211=EDGE_CURVE('',#290,#289,#344,.T.);
#212=EDGE_CURVE('',#291,#290,#345,.T.);
#213=EDGE_CURVE('',#291,#292,#346,.T.);
#214=EDGE_CURVE('',#292,#293,#347,.T.);
#215=EDGE_CURVE('',#293,#294,#348,.T.);
#216=EDGE_CURVE('',#294,#295,#349,.T.);
#217=EDGE_CURVE('',#295,#296,#350,.T.);
#218=EDGE_CURVE('',#297,#296,#351,.T.);
#219=EDGE_CURVE('',#297,#298,#352,.T.);
#220=EDGE_CURVE('',#299,#298,#353,.T.);
#221=EDGE_CURVE('',#287,#299,#354,.T.);
#222=EDGE_CURVE('',#288,#300,#355,.T.);
#223=EDGE_CURVE('',#301,#300,#356,.T.);
#224=EDGE_CURVE('',#289,#301,#357,.T.);
#225=EDGE_CURVE('',#300,#302,#358,.T.);
#226=EDGE_CURVE('',#303,#302,#359,.T.);
#227=EDGE_CURVE('',#301,#303,#360,.T.);
#228=EDGE_CURVE('',#271,#302,#12,.T.);
#229=EDGE_CURVE('',#273,#303,#13,.T.);
#230=EDGE_CURVE('',#290,#286,#361,.T.);
#231=EDGE_CURVE('',#287,#276,#362,.T.);
#232=EDGE_CURVE('',#304,#285,#363,.T.);
#233=EDGE_CURVE('',#291,#304,#364,.T.);
#234=EDGE_CURVE('',#305,#306,#365,.T.);
#235=EDGE_CURVE('',#307,#305,#366,.T.);
#236=EDGE_CURVE('',#307,#308,#367,.T.);
#237=EDGE_CURVE('',#308,#306,#368,.T.);
#238=EDGE_CURVE('',#305,#296,#369,.T.);
#239=EDGE_CURVE('',#307,#295,#370,.T.);
#240=EDGE_CURVE('',#280,#309,#371,.T.);
#241=EDGE_CURVE('',#310,#309,#372,.T.);
#242=EDGE_CURVE('',#281,#310,#373,.T.);
#243=EDGE_CURVE('',#309,#311,#374,.T.);
#244=EDGE_CURVE('',#312,#311,#375,.T.);
#245=EDGE_CURVE('',#310,#312,#376,.T.);
#246=EDGE_CURVE('',#306,#311,#14,.T.);
#247=EDGE_CURVE('',#308,#312,#15,.T.);
#248=EDGE_CURVE('',#282,#294,#377,.T.);
#249=EDGE_CURVE('',#279,#297,#378,.T.);
#250=EDGE_CURVE('',#298,#278,#379,.T.);
#251=EDGE_CURVE('',#313,#292,#16,.T.);
#252=EDGE_CURVE('',#314,#313,#380,.T.);
#253=EDGE_CURVE('',#315,#314,#17,.T.);
#254=EDGE_CURVE('',#315,#316,#381,.T.);
#255=EDGE_CURVE('',#284,#316,#18,.T.);
#256=EDGE_CURVE('',#293,#283,#382,.T.);
#257=EDGE_CURVE('',#292,#304,#19,.T.);
#258=EDGE_CURVE('',#299,#277,#383,.T.);
#259=EDGE_CURVE('',#304,#284,#20,.T.);
#260=EDGE_CURVE('',#317,#316,#384,.T.);
#261=EDGE_CURVE('',#318,#317,#21,.T.);
#262=EDGE_CURVE('',#318,#313,#385,.T.);
#263=EDGE_CURVE('',#319,#315,#386,.T.);
#264=EDGE_CURVE('',#319,#317,#387,.T.);
#265=EDGE_CURVE('',#320,#314,#388,.T.);
#266=EDGE_CURVE('',#319,#320,#22,.T.);
#267=EDGE_CURVE('',#320,#318,#389,.T.);
#268=EDGE_CURVE('',#321,#321,#23,.T.);
#269=EDGE_CURVE('',#322,#322,#24,.T.);
#270=VERTEX_POINT('',#797);
#271=VERTEX_POINT('',#798);
#272=VERTEX_POINT('',#800);
#273=VERTEX_POINT('',#802);
#274=VERTEX_POINT('',#806);
#275=VERTEX_POINT('',#808);
#276=VERTEX_POINT('',#812);
#277=VERTEX_POINT('',#814);
#278=VERTEX_POINT('',#816);
#279=VERTEX_POINT('',#818);
#280=VERTEX_POINT('',#820);
#281=VERTEX_POINT('',#822);
#282=VERTEX_POINT('',#824);
#283=VERTEX_POINT('',#826);
#284=VERTEX_POINT('',#828);
#285=VERTEX_POINT('',#830);
#286=VERTEX_POINT('',#832);
#287=VERTEX_POINT('',#836);
#288=VERTEX_POINT('',#837);
#289=VERTEX_POINT('',#839);
#290=VERTEX_POINT('',#841);
#291=VERTEX_POINT('',#843);
#292=VERTEX_POINT('',#845);
#293=VERTEX_POINT('',#847);
#294=VERTEX_POINT('',#849);
#295=VERTEX_POINT('',#851);
#296=VERTEX_POINT('',#853);
#297=VERTEX_POINT('',#855);
#298=VERTEX_POINT('',#857);
#299=VERTEX_POINT('',#859);
#300=VERTEX_POINT('',#863);
#301=VERTEX_POINT('',#865);
#302=VERTEX_POINT('',#869);
#303=VERTEX_POINT('',#871);
#304=VERTEX_POINT('',#882);
#305=VERTEX_POINT('',#886);
#306=VERTEX_POINT('',#887);
#307=VERTEX_POINT('',#889);
#308=VERTEX_POINT('',#891);
#309=VERTEX_POINT('',#898);
#310=VERTEX_POINT('',#900);
#311=VERTEX_POINT('',#904);
#312=VERTEX_POINT('',#906);
#313=VERTEX_POINT('',#919);
#314=VERTEX_POINT('',#921);
#315=VERTEX_POINT('',#923);
#316=VERTEX_POINT('',#925);
#317=VERTEX_POINT('',#938);
#318=VERTEX_POINT('',#940);
#319=VERTEX_POINT('',#944);
#320=VERTEX_POINT('',#948);
#321=VERTEX_POINT('',#954);
#322=VERTEX_POINT('',#957);
#323=LINE('',#796,#390);
#324=LINE('',#799,#391);
#325=LINE('',#801,#392);
#326=LINE('',#803,#393);
#327=LINE('',#805,#394);
#328=LINE('',#807,#395);
#329=LINE('',#809,#396);
#330=LINE('',#811,#397);
#331=LINE('',#813,#398);
#332=LINE('',#815,#399);
#333=LINE('',#817,#400);
#334=LINE('',#819,#401);
#335=LINE('',#821,#402);
#336=LINE('',#823,#403);
#337=LINE('',#825,#404);
#338=LINE('',#827,#405);
#339=LINE('',#829,#406);
#340=LINE('',#831,#407);
#341=LINE('',#833,#408);
#342=LINE('',#835,#409);
#343=LINE('',#838,#410);
#344=LINE('',#840,#411);
#345=LINE('',#842,#412);
#346=LINE('',#844,#413);
#347=LINE('',#846,#414);
#348=LINE('',#848,#415);
#349=LINE('',#850,#416);
#350=LINE('',#852,#417);
#351=LINE('',#854,#418);
#352=LINE('',#856,#419);
#353=LINE('',#858,#420);
#354=LINE('',#860,#421);
#355=LINE('',#862,#422);
#356=LINE('',#864,#423);
#357=LINE('',#866,#424);
#358=LINE('',#868,#425);
#359=LINE('',#870,#426);
#360=LINE('',#872,#427);
#361=LINE('',#877,#428);
#362=LINE('',#879,#429);
#363=LINE('',#881,#430);
#364=LINE('',#883,#431);
#365=LINE('',#885,#432);
#366=LINE('',#888,#433);
#367=LINE('',#890,#434);
#368=LINE('',#892,#435);
#369=LINE('',#894,#436);
#370=LINE('',#895,#437);
#371=LINE('',#897,#438);
#372=LINE('',#899,#439);
#373=LINE('',#901,#440);
#374=LINE('',#903,#441);
#375=LINE('',#905,#442);
#376=LINE('',#907,#443);
#377=LINE('',#912,#444);
#378=LINE('',#914,#445);
#379=LINE('',#916,#446);
#380=LINE('',#920,#447);
#381=LINE('',#924,#448);
#382=LINE('',#927,#449);
#383=LINE('',#931,#450);
#384=LINE('',#937,#451);
#385=LINE('',#941,#452);
#386=LINE('',#943,#453);
#387=LINE('',#945,#454);
#388=LINE('',#947,#455);
#389=LINE('',#951,#456);
#390=VECTOR('',#641,1.);
#391=VECTOR('',#642,1.);
#392=VECTOR('',#643,1.);
#393=VECTOR('',#644,1.);
#394=VECTOR('',#647,1.);
#395=VECTOR('',#648,1.);
#396=VECTOR('',#649,1.);
#397=VECTOR('',#652,1.);
#398=VECTOR('',#653,1.);
#399=VECTOR('',#654,1.);
#400=VECTOR('',#655,1.);
#401=VECTOR('',#656,1.);
#402=VECTOR('',#657,1.);
#403=VECTOR('',#658,1.);
#404=VECTOR('',#659,1.);
#405=VECTOR('',#660,1.);
#406=VECTOR('',#661,1.);
#407=VECTOR('',#662,1.);
#408=VECTOR('',#663,1.);
#409=VECTOR('',#666,1.);
#410=VECTOR('',#667,1.);
#411=VECTOR('',#668,1.);
#412=VECTOR('',#669,1.);
#413=VECTOR('',#670,1.);
#414=VECTOR('',#671,1.);
#415=VECTOR('',#672,1.);
#416=VECTOR('',#673,1.);
#417=VECTOR('',#674,1.);
#418=VECTOR('',#675,1.);
#419=VECTOR('',#676,1.);
#420=VECTOR('',#677,1.);
#421=VECTOR('',#678,1.);
#422=VECTOR('',#681,1.);
#423=VECTOR('',#682,1.);
#424=VECTOR('',#683,1.);
#425=VECTOR('',#686,1.);
#426=VECTOR('',#687,1.);
#427=VECTOR('',#688,1.);
#428=VECTOR('',#697,1.);
#429=VECTOR('',#700,1.);
#430=VECTOR('',#703,1.);
#431=VECTOR('',#704,1.);
#432=VECTOR('',#707,1.);
#433=VECTOR('',#708,1.);
#434=VECTOR('',#709,1.);
#435=VECTOR('',#710,1.);
#436=VECTOR('',#713,1.);
#437=VECTOR('',#714,1.);
#438=VECTOR('',#717,1.);
#439=VECTOR('',#718,1.);
#440=VECTOR('',#719,1.);
#441=VECTOR('',#722,1.);
#442=VECTOR('',#723,1.);
#443=VECTOR('',#724,1.);
#444=VECTOR('',#733,1.);
#445=VECTOR('',#736,1.);
#446=VECTOR('',#739,1.);
#447=VECTOR('',#744,1.);
#448=VECTOR('',#747,1.);
#449=VECTOR('',#750,1.);
#450=VECTOR('',#757,1.);
#451=VECTOR('',#768,1.);
#452=VECTOR('',#771,1.);
#453=VECTOR('',#774,1.);
#454=VECTOR('',#775,1.);
#455=VECTOR('',#778,1.);
#456=VECTOR('',#783,1.);
#457=EDGE_LOOP('',(#30,#31,#32,#33));
#458=EDGE_LOOP('',(#34,#35,#36,#37));
#459=EDGE_LOOP('',(#38,#39,#40,#41,#42,#43,#44,#45,#46,#47,#48,#49,#50));
#460=EDGE_LOOP('',(#51,#52,#53,#54,#55,#56,#57,#58,#59,#60,#61,#62,#63));
#461=EDGE_LOOP('',(#64,#65,#66,#67));
#462=EDGE_LOOP('',(#68,#69,#70,#71));
#463=EDGE_LOOP('',(#72,#73,#74,#75));
#464=EDGE_LOOP('',(#76,#77,#78,#79,#80,#81,#82,#83));
#465=EDGE_LOOP('',(#84,#85,#86,#87,#88,#89,#90,#91));
#466=EDGE_LOOP('',(#92,#93,#94,#95,#96));
#467=EDGE_LOOP('',(#97,#98,#99,#100));
#468=EDGE_LOOP('',(#101,#102,#103,#104));
#469=EDGE_LOOP('',(#105,#106,#107,#108));
#470=EDGE_LOOP('',(#109,#110,#111,#112));
#471=EDGE_LOOP('',(#113,#114,#115,#116));
#472=EDGE_LOOP('',(#117,#118,#119,#120,#121,#122,#123,#124));
#473=EDGE_LOOP('',(#125,#126,#127,#128,#129,#130,#131,#132));
#474=EDGE_LOOP('',(#133,#134,#135,#136));
#475=EDGE_LOOP('',(#137,#138,#139,#140,#141,#142,#143,#144));
#476=EDGE_LOOP('',(#145,#146,#147));
#477=EDGE_LOOP('',(#148,#149,#150,#151));
#478=EDGE_LOOP('',(#152,#153,#154,#155));
#479=EDGE_LOOP('',(#156,#157,#158));
#480=EDGE_LOOP('',(#159,#160,#161,#162));
#481=EDGE_LOOP('',(#163,#164,#165,#166,#167,#168,#169));
#482=EDGE_LOOP('',(#170,#171,#172,#173));
#483=EDGE_LOOP('',(#174,#175,#176,#177));
#484=EDGE_LOOP('',(#178,#179,#180,#181));
#485=EDGE_LOOP('',(#182));
#486=EDGE_LOOP('',(#183,#184,#185,#186));
#487=EDGE_LOOP('',(#187));
#488=EDGE_LOOP('',(#188));
#489=EDGE_LOOP('',(#189));
#490=FACE_BOUND('',#457,.T.);
#491=FACE_BOUND('',#458,.T.);
#492=FACE_BOUND('',#459,.T.);
#493=FACE_BOUND('',#460,.T.);
#494=FACE_BOUND('',#461,.T.);
#495=FACE_BOUND('',#462,.T.);
#496=FACE_BOUND('',#463,.T.);
#497=FACE_BOUND('',#464,.T.);
#498=FACE_BOUND('',#465,.T.);
#499=FACE_BOUND('',#466,.T.);
#500=FACE_BOUND('',#467,.T.);
#501=FACE_BOUND('',#468,.T.);
#502=FACE_BOUND('',#469,.T.);
#503=FACE_BOUND('',#470,.T.);
#504=FACE_BOUND('',#471,.T.);
#505=FACE_BOUND('',#472,.T.);
#506=FACE_BOUND('',#473,.T.);
#507=FACE_BOUND('',#474,.T.);
#508=FACE_BOUND('',#475,.T.);
#509=FACE_BOUND('',#476,.T.);
#510=FACE_BOUND('',#477,.T.);
#511=FACE_BOUND('',#478,.T.);
#512=FACE_BOUND('',#479,.T.);
#513=FACE_BOUND('',#480,.T.);
#514=FACE_BOUND('',#481,.T.);
#515=FACE_BOUND('',#482,.T.);
#516=FACE_BOUND('',#483,.T.);
#517=FACE_BOUND('',#484,.T.);
#518=FACE_BOUND('',#485,.T.);
#519=FACE_BOUND('',#486,.T.);
#520=FACE_BOUND('',#487,.T.);
#521=FACE_BOUND('',#488,.T.);
#522=FACE_BOUND('',#489,.T.);
#523=PLANE('',#593);
#524=PLANE('',#594);
#525=PLANE('',#595);
#526=PLANE('',#596);
#527=PLANE('',#597);
#528=PLANE('',#598);
#529=PLANE('',#602);
#530=PLANE('',#603);
#531=PLANE('',#604);
#532=PLANE('',#605);
#533=PLANE('',#606);
#534=PLANE('',#607);
#535=PLANE('',#608);
#536=PLANE('',#612);
#537=PLANE('',#613);
#538=PLANE('',#614);
#539=PLANE('',#615);
#540=PLANE('',#619);
#541=PLANE('',#621);
#542=PLANE('',#622);
#543=PLANE('',#623);
#544=PLANE('',#625);
#545=PLANE('',#628);
#546=PLANE('',#631);
#547=PLANE('',#632);
#548=PLANE('',#636);
#549=ADVANCED_FACE('',(#490),#523,.T.);
#550=ADVANCED_FACE('',(#491),#524,.F.);
#551=ADVANCED_FACE('',(#492),#525,.T.);
#552=ADVANCED_FACE('',(#493),#526,.F.);
#553=ADVANCED_FACE('',(#494),#527,.F.);
#554=ADVANCED_FACE('',(#495),#528,.F.);
#555=ADVANCED_FACE('',(#496),#25,.F.);
#556=ADVANCED_FACE('',(#497),#529,.T.);
#557=ADVANCED_FACE('',(#498),#530,.F.);
#558=ADVANCED_FACE('',(#499),#531,.F.);
#559=ADVANCED_FACE('',(#500),#532,.T.);
#560=ADVANCED_FACE('',(#501),#533,.F.);
#561=ADVANCED_FACE('',(#502),#534,.F.);
#562=ADVANCED_FACE('',(#503),#535,.F.);
#563=ADVANCED_FACE('',(#504),#26,.F.);
#564=ADVANCED_FACE('',(#505),#536,.T.);
#565=ADVANCED_FACE('',(#506),#537,.F.);
#566=ADVANCED_FACE('',(#507),#538,.T.);
#567=ADVANCED_FACE('',(#508),#539,.T.);
#568=ADVANCED_FACE('',(#509),#540,.T.);
#569=ADVANCED_FACE('',(#510),#541,.F.);
#570=ADVANCED_FACE('',(#511),#542,.T.);
#571=ADVANCED_FACE('',(#512),#543,.T.);
#572=ADVANCED_FACE('',(#513),#544,.F.);
#573=ADVANCED_FACE('',(#514),#27,.T.);
#574=ADVANCED_FACE('',(#515),#545,.T.);
#575=ADVANCED_FACE('',(#516),#28,.T.);
#576=ADVANCED_FACE('',(#517),#546,.F.);
#577=ADVANCED_FACE('',(#518,#519),#547,.T.);
#578=ADVANCED_FACE('',(#520,#521),#29,.T.);
#579=ADVANCED_FACE('',(#522),#548,.T.);
#580=CLOSED_SHELL('',(#549,#550,#551,#552,#553,#554,#555,#556,#557,#558,
#559,#560,#561,#562,#563,#564,#565,#566,#567,#568,#569,#570,#571,#572,#573,
#574,#575,#576,#577,#578,#579));
#581=STYLED_ITEM('',(#582),#589);
#582=PRESENTATION_STYLE_ASSIGNMENT((#583));
#583=SURFACE_STYLE_USAGE(.BOTH.,#584);
#584=SURFACE_SIDE_STYLE('',(#585));
#585=SURFACE_STYLE_FILL_AREA(#586);
#586=FILL_AREA_STYLE('',(#587));
#587=FILL_AREA_STYLE_COLOUR('',#588);
#588=COLOUR_RGB('',0.647058823529412,0.647058823529412,0.647058823529412);
#589=MANIFOLD_SOLID_BREP('Part 2',#580);
#590=SHAPE_DEFINITION_REPRESENTATION(#965,#591);
#591=SHAPE_REPRESENTATION('Part 2',(#592),#960);
#592=AXIS2_PLACEMENT_3D('',#794,#637,#638);
#593=AXIS2_PLACEMENT_3D('',#795,#639,#640);
#594=AXIS2_PLACEMENT_3D('',#804,#645,#646);
#595=AXIS2_PLACEMENT_3D('',#810,#650,#651);
#596=AXIS2_PLACEMENT_3D('',#834,#664,#665);
#597=AXIS2_PLACEMENT_3D('',#861,#679,#680);
#598=AXIS2_PLACEMENT_3D('',#867,#684,#685);
#599=AXIS2_PLACEMENT_3D('',#873,#689,#690);
#600=AXIS2_PLACEMENT_3D('',#874,#691,#692);
#601=AXIS2_PLACEMENT_3D('',#875,#693,#694);
#602=AXIS2_PLACEMENT_3D('',#876,#695,#696);
#603=AXIS2_PLACEMENT_3D('',#878,#698,#699);
#604=AXIS2_PLACEMENT_3D('',#880,#701,#702);
#605=AXIS2_PLACEMENT_3D('',#884,#705,#706);
#606=AXIS2_PLACEMENT_3D('',#893,#711,#712);
#607=AXIS2_PLACEMENT_3D('',#896,#715,#716);
#608=AXIS2_PLACEMENT_3D('',#902,#720,#721);
#609=AXIS2_PLACEMENT_3D('',#908,#725,#726);
#610=AXIS2_PLACEMENT_3D('',#909,#727,#728);
#611=AXIS2_PLACEMENT_3D('',#910,#729,#730);
#612=AXIS2_PLACEMENT_3D('',#911,#731,#732);
#613=AXIS2_PLACEMENT_3D('',#913,#734,#735);
#614=AXIS2_PLACEMENT_3D('',#915,#737,#738);
#615=AXIS2_PLACEMENT_3D('',#917,#740,#741);
#616=AXIS2_PLACEMENT_3D('',#918,#742,#743);
#617=AXIS2_PLACEMENT_3D('',#922,#745,#746);
#618=AXIS2_PLACEMENT_3D('',#926,#748,#749);
#619=AXIS2_PLACEMENT_3D('',#928,#751,#752);
#620=AXIS2_PLACEMENT_3D('',#929,#753,#754);
#621=AXIS2_PLACEMENT_3D('',#930,#755,#756);
#622=AXIS2_PLACEMENT_3D('',#932,#758,#759);
#623=AXIS2_PLACEMENT_3D('',#933,#760,#761);
#624=AXIS2_PLACEMENT_3D('',#934,#762,#763);
#625=AXIS2_PLACEMENT_3D('',#935,#764,#765);
#626=AXIS2_PLACEMENT_3D('',#936,#766,#767);
#627=AXIS2_PLACEMENT_3D('',#939,#769,#770);
#628=AXIS2_PLACEMENT_3D('',#942,#772,#773);
#629=AXIS2_PLACEMENT_3D('',#946,#776,#777);
#630=AXIS2_PLACEMENT_3D('',#949,#779,#780);
#631=AXIS2_PLACEMENT_3D('',#950,#781,#782);
#632=AXIS2_PLACEMENT_3D('',#952,#784,#785);
#633=AXIS2_PLACEMENT_3D('',#953,#786,#787);
#634=AXIS2_PLACEMENT_3D('',#955,#788,#789);
#635=AXIS2_PLACEMENT_3D('',#956,#790,#791);
#636=AXIS2_PLACEMENT_3D('',#958,#792,#793);
#637=DIRECTION('',(0.,0.,1.));
#638=DIRECTION('',(1.,0.,0.));
#639=DIRECTION('',(0.,1.,0.));
#640=DIRECTION('',(0.,0.,1.));
#641=DIRECTION('',(1.,0.,0.));
#642=DIRECTION('',(0.,0.,-1.));
#643=DIRECTION('',(1.,0.,0.));
#644=DIRECTION('',(0.,0.,-1.));
#645=DIRECTION('',(1.,6.60847038467355E-16,0.));
#646=DIRECTION('',(-6.60847038467355E-16,1.,0.));
#647=DIRECTION('',(6.60847038467355E-16,-1.,0.));
#648=DIRECTION('',(0.,0.,-1.));
#649=DIRECTION('',(6.60847038467355E-16,-1.,0.));
#650=DIRECTION('',(0.,-1.,0.));
#651=DIRECTION('',(0.,0.,-1.));
#652=DIRECTION('',(-1.,0.,0.));
#653=DIRECTION('',(0.,0.,-1.));
#654=DIRECTION('',(1.,0.,0.));
#655=DIRECTION('',(0.,0.,-1.));
#656=DIRECTION('',(1.,0.,0.));
#657=DIRECTION('',(0.,0.,-1.));
#658=DIRECTION('',(1.,0.,0.));
#659=DIRECTION('',(0.,0.,-1.));
#660=DIRECTION('',(1.,0.,0.));
#661=DIRECTION('',(1.,0.,0.));
#662=DIRECTION('',(0.,0.,-1.));
#663=DIRECTION('',(-1.,0.,0.));
#664=DIRECTION('',(0.,-1.,0.));
#665=DIRECTION('',(0.,0.,-1.));
#666=DIRECTION('',(-1.,0.,0.));
#667=DIRECTION('',(0.,0.,-1.));
#668=DIRECTION('',(-1.,0.,0.));
#669=DIRECTION('',(0.,0.,-1.));
#670=DIRECTION('',(1.,0.,0.));
#671=DIRECTION('',(1.,0.,0.));
#672=DIRECTION('',(0.,0.,-1.));
#673=DIRECTION('',(1.,3.69090101271662E-16,0.));
#674=DIRECTION('',(0.,0.,-1.));
#675=DIRECTION('',(1.,3.69090101271662E-16,0.));
#676=DIRECTION('',(0.,0.,-1.));
#677=DIRECTION('',(1.,0.,0.));
#678=DIRECTION('',(0.,0.,-1.));
#679=DIRECTION('',(1.,6.60847038467355E-16,0.));
#680=DIRECTION('',(-6.60847038467355E-16,1.,0.));
#681=DIRECTION('',(6.60847038467355E-16,-1.,0.));
#682=DIRECTION('',(0.,0.,-1.));
#683=DIRECTION('',(6.60847038467355E-16,-1.,0.));
#684=DIRECTION('',(0.,1.,0.));
#685=DIRECTION('',(0.,0.,1.));
#686=DIRECTION('',(1.,0.,0.));
#687=DIRECTION('',(0.,0.,-1.));
#688=DIRECTION('',(1.,0.,0.));
#689=DIRECTION('',(0.,0.,-1.));
#690=DIRECTION('',(-1.,0.,0.));
#691=DIRECTION('',(0.,0.,1.));
#692=DIRECTION('',(1.,0.,0.));
#693=DIRECTION('',(0.,0.,1.));
#694=DIRECTION('',(1.,0.,0.));
#695=DIRECTION('',(0.,0.,1.));
#696=DIRECTION('',(1.,0.,0.));
#697=DIRECTION('',(0.,-1.,0.));
#698=DIRECTION('',(0.,0.,1.));
#699=DIRECTION('',(1.,0.,0.));
#700=DIRECTION('',(0.,-1.,0.));
#701=DIRECTION('',(1.,0.,0.));
#702=DIRECTION('',(0.,0.,-1.));
#703=DIRECTION('',(0.,-1.,0.));
#704=DIRECTION('',(0.,-1.,0.));
#705=DIRECTION('',(7.03997308356035E-17,-1.,0.));
#706=DIRECTION('',(1.,7.03997308356035E-17,0.));
#707=DIRECTION('',(-1.,-7.03997308356035E-17,0.));
#708=DIRECTION('',(0.,0.,-1.));
#709=DIRECTION('',(-1.,-7.03997308356035E-17,0.));
#710=DIRECTION('',(0.,0.,-1.));
#711=DIRECTION('',(-1.,-3.30423519233678E-16,0.));
#712=DIRECTION('',(3.30423519233678E-16,-1.,0.));
#713=DIRECTION('',(-3.30423519233678E-16,1.,0.));
#714=DIRECTION('',(-3.30423519233678E-16,1.,0.));
#715=DIRECTION('',(-1.,-3.30423519233678E-16,0.));
#716=DIRECTION('',(3.30423519233678E-16,-1.,0.));
#717=DIRECTION('',(-3.30423519233678E-16,1.,0.));
#718=DIRECTION('',(0.,0.,-1.));
#719=DIRECTION('',(-3.30423519233678E-16,1.,0.));
#720=DIRECTION('',(7.03997308356035E-17,-1.,0.));
#721=DIRECTION('',(1.,7.03997308356035E-17,0.));
#722=DIRECTION('',(-1.,-7.03997308356035E-17,0.));
#723=DIRECTION('',(0.,0.,-1.));
#724=DIRECTION('',(-1.,-7.03997308356035E-17,0.));
#725=DIRECTION('',(0.,0.,-1.));
#726=DIRECTION('',(-1.,0.,0.));
#727=DIRECTION('',(0.,0.,1.));
#728=DIRECTION('',(1.,0.,0.));
#729=DIRECTION('',(0.,0.,1.));
#730=DIRECTION('',(1.,0.,0.));
#731=DIRECTION('',(0.,0.,1.));
#732=DIRECTION('',(1.,0.,0.));
#733=DIRECTION('',(-2.94020928131662E-16,1.,0.));
#734=DIRECTION('',(0.,0.,1.));
#735=DIRECTION('',(1.,0.,0.));
#736=DIRECTION('',(-2.94020928131662E-16,1.,0.));
#737=DIRECTION('',(1.,0.,0.));
#738=DIRECTION('',(0.,0.,-1.));
#739=DIRECTION('',(0.,-1.,0.));
#740=DIRECTION('',(0.,0.,1.));
#741=DIRECTION('',(1.,0.,0.));
#742=DIRECTION('',(0.,0.,1.));
#743=DIRECTION('',(1.,0.,0.));
#744=DIRECTION('',(-1.,-4.53713580578548E-16,0.));
#745=DIRECTION('',(0.,0.,1.));
#746=DIRECTION('',(1.,0.,0.));
#747=DIRECTION('',(-1.,-4.53713580578548E-16,0.));
#748=DIRECTION('',(0.,0.,1.));
#749=DIRECTION('',(1.,0.,0.));
#750=DIRECTION('',(0.,-1.,0.));
#751=DIRECTION('',(0.,0.,1.));
#752=DIRECTION('',(1.,0.,0.));
#753=DIRECTION('',(0.,0.,1.));
#754=DIRECTION('',(1.,0.,0.));
#755=DIRECTION('',(1.,0.,0.));
#756=DIRECTION('',(0.,0.,-1.));
#757=DIRECTION('',(0.,-1.,0.));
#758=DIRECTION('',(1.,0.,0.));
#759=DIRECTION('',(0.,0.,-1.));
#760=DIRECTION('',(0.,0.,1.));
#761=DIRECTION('',(1.,0.,0.));
#762=DIRECTION('',(0.,0.,1.));
#763=DIRECTION('',(1.,0.,0.));
#764=DIRECTION('',(0.,0.,1.));
#765=DIRECTION('',(1.,0.,0.));
#766=DIRECTION('',(0.,0.,-1.));
#767=DIRECTION('',(-1.,0.,0.));
#768=DIRECTION('',(0.,0.,-1.));
#769=DIRECTION('',(0.,0.,1.));
#770=DIRECTION('',(1.,0.,0.));
#771=DIRECTION('',(0.,0.,-1.));
#772=DIRECTION('',(4.53713580578548E-16,-1.,0.));
#773=DIRECTION('',(1.,4.53713580578548E-16,0.));
#774=DIRECTION('',(0.,0.,-1.));
#775=DIRECTION('',(-1.,-4.53713580578548E-16,0.));
#776=DIRECTION('',(0.,0.,-1.));
#777=DIRECTION('',(-1.,0.,0.));
#778=DIRECTION('',(0.,0.,-1.));
#779=DIRECTION('',(0.,0.,1.));
#780=DIRECTION('',(1.,0.,0.));
#781=DIRECTION('',(4.53713580578548E-16,-1.,0.));
#782=DIRECTION('',(1.,4.53713580578548E-16,0.));
#783=DIRECTION('',(-1.,-4.53713580578548E-16,0.));
#784=DIRECTION('',(0.,0.,1.));
#785=DIRECTION('',(1.,0.,0.));
#786=DIRECTION('',(0.,0.,1.));
#787=DIRECTION('',(1.,0.,0.));
#788=DIRECTION('',(0.,0.,-1.));
#789=DIRECTION('',(-1.,0.,0.));
#790=DIRECTION('',(0.,0.,1.));
#791=DIRECTION('',(1.,0.,0.));
#792=DIRECTION('',(0.,0.,1.));
#793=DIRECTION('',(1.,0.,0.));
#794=CARTESIAN_POINT('',(0.,0.,0.));
#795=CARTESIAN_POINT('',(-0.0174768417611126,-0.000540625476837158,0.0184));
#796=CARTESIAN_POINT('',(-0.0174768417611126,-0.000540625476837158,0.0159));
#797=CARTESIAN_POINT('',(-0.0182468746572733,-0.000540625476837158,0.0159));
#798=CARTESIAN_POINT('',(-0.0167068088649518,-0.000540625476837157,0.0159));
#799=CARTESIAN_POINT('',(-0.0182468746572733,-0.000540625476837158,0.0184));
#800=CARTESIAN_POINT('',(-0.0182468746572733,-0.000540625476837158,0.0184));
#801=CARTESIAN_POINT('',(-0.0174768417611126,-0.000540625476837158,0.0184));
#802=CARTESIAN_POINT('',(-0.0167068088649518,-0.000540625476837157,0.0184));
#803=CARTESIAN_POINT('',(-0.0167068088649518,-0.000540625476837157,0.0184));
#804=CARTESIAN_POINT('',(-0.0182468746572733,-0.00316562547683716,0.0184));
#805=CARTESIAN_POINT('',(-0.0182468746572733,-0.00316562547683716,0.0159));
#806=CARTESIAN_POINT('',(-0.0182468746572733,-0.00579062547683716,0.0159));
#807=CARTESIAN_POINT('',(-0.0182468746572733,-0.00579062547683716,0.0184));
#808=CARTESIAN_POINT('',(-0.0182468746572733,-0.00579062547683716,0.0184));
#809=CARTESIAN_POINT('',(-0.0182468746572733,-0.00316562547683716,0.0184));
#810=CARTESIAN_POINT('',(-0.0158968746572733,-0.00579062547683716,0.0184));
#811=CARTESIAN_POINT('',(-0.0158968746572733,-0.00579062547683716,0.0159));
#812=CARTESIAN_POINT('',(-0.0135468746572733,-0.00579062547683716,0.0159));
#813=CARTESIAN_POINT('',(-0.0135468746572733,-0.00579062547683716,0.0227));
#814=CARTESIAN_POINT('',(-0.0135468746572733,-0.00579062547683716,0.));
#815=CARTESIAN_POINT('',(-0.00229687465727329,-0.00579062547683716,0.));
#816=CARTESIAN_POINT('',(0.0089531253427267,-0.00579062547683716,0.));
#817=CARTESIAN_POINT('',(0.0089531253427267,-0.00579062547683716,0.0227));
#818=CARTESIAN_POINT('',(0.00895312534272671,-0.00579062547683716,0.0159));
#819=CARTESIAN_POINT('',(0.0113031253427267,-0.00579062547683716,0.0159));
#820=CARTESIAN_POINT('',(0.0136531253427267,-0.00579062547683716,0.0159));
#821=CARTESIAN_POINT('',(0.0136531253427267,-0.00579062547683716,0.0184));
#822=CARTESIAN_POINT('',(0.0136531253427267,-0.00579062547683716,0.0184));
#823=CARTESIAN_POINT('',(0.0113031253427267,-0.00579062547683716,0.0184));
#824=CARTESIAN_POINT('',(0.00895312534272671,-0.00579062547683716,0.0184));
#825=CARTESIAN_POINT('',(0.0089531253427267,-0.00579062547683716,0.0227));
#826=CARTESIAN_POINT('',(0.0089531253427267,-0.00579062547683716,0.0227));
#827=CARTESIAN_POINT('',(-0.00229687465727329,-0.00579062547683716,0.0227));
#828=CARTESIAN_POINT('',(-0.00764687757315398,-0.00579062547683716,0.0227));
#829=CARTESIAN_POINT('',(-0.00229687465727329,-0.00579062547683716,0.0227));
#830=CARTESIAN_POINT('',(-0.0135468746572733,-0.00579062547683716,0.0227));
#831=CARTESIAN_POINT('',(-0.0135468746572733,-0.00579062547683716,0.0227));
#832=CARTESIAN_POINT('',(-0.0135468746572733,-0.00579062547683716,0.0184));
#833=CARTESIAN_POINT('',(-0.0158968746572733,-0.00579062547683716,0.0184));
#834=CARTESIAN_POINT('',(-0.0158968746572733,0.00600937452316284,0.0184));
#835=CARTESIAN_POINT('',(-0.0158968746572733,0.00600937452316284,0.0159));
#836=CARTESIAN_POINT('',(-0.0135468746572733,0.00600937452316284,0.0159));
#837=CARTESIAN_POINT('',(-0.0182468746572733,0.00600937452316284,0.0159));
#838=CARTESIAN_POINT('',(-0.0182468746572733,0.00600937452316284,0.0184));
#839=CARTESIAN_POINT('',(-0.0182468746572733,0.00600937452316284,0.0184));
#840=CARTESIAN_POINT('',(-0.0158968746572733,0.00600937452316284,0.0184));
#841=CARTESIAN_POINT('',(-0.0135468746572733,0.00600937452316284,0.0184));
#842=CARTESIAN_POINT('',(-0.0135468746572733,0.00600937452316284,0.0227));
#843=CARTESIAN_POINT('',(-0.0135468746572733,0.00600937452316284,0.0227));
#844=CARTESIAN_POINT('',(-0.00229687465727329,0.00600937452316284,0.0227));
#845=CARTESIAN_POINT('',(-0.00764687757315398,0.00600937452316284,0.0227));
#846=CARTESIAN_POINT('',(-0.00229687465727329,0.00600937452316284,0.0227));
#847=CARTESIAN_POINT('',(0.0089531253427267,0.00600937452316284,0.0227));
#848=CARTESIAN_POINT('',(0.0089531253427267,0.00600937452316284,0.0227));
#849=CARTESIAN_POINT('',(0.0089531253427267,0.00600937452316284,0.0184));
#850=CARTESIAN_POINT('',(0.0113031253427267,0.00600937452316284,0.0184));
#851=CARTESIAN_POINT('',(0.0136531253427267,0.00600937452316284,0.0184));
#852=CARTESIAN_POINT('',(0.0136531253427267,0.00600937452316284,0.0184));
#853=CARTESIAN_POINT('',(0.0136531253427267,0.00600937452316284,0.0159));
#854=CARTESIAN_POINT('',(0.0113031253427267,0.00600937452316284,0.0159));
#855=CARTESIAN_POINT('',(0.00895312534272671,0.00600937452316284,0.0159));
#856=CARTESIAN_POINT('',(0.0089531253427267,0.00600937452316284,0.0227));
#857=CARTESIAN_POINT('',(0.0089531253427267,0.00600937452316284,0.));
#858=CARTESIAN_POINT('',(-0.00229687465727329,0.00600937452316284,0.));
#859=CARTESIAN_POINT('',(-0.0135468746572733,0.00600937452316284,0.));
#860=CARTESIAN_POINT('',(-0.0135468746572733,0.00600937452316284,0.0227));
#861=CARTESIAN_POINT('',(-0.0182468746572733,0.00338437452316284,0.0184));
#862=CARTESIAN_POINT('',(-0.0182468746572733,0.00338437452316284,0.0159));
#863=CARTESIAN_POINT('',(-0.0182468746572733,0.000759374523162842,0.0159));
#864=CARTESIAN_POINT('',(-0.0182468746572733,0.000759374523162842,0.0184));
#865=CARTESIAN_POINT('',(-0.0182468746572733,0.000759374523162842,0.0184));
#866=CARTESIAN_POINT('',(-0.0182468746572733,0.00338437452316284,0.0184));
#867=CARTESIAN_POINT('',(-0.0174768417611126,0.000759374523162842,0.0184));
#868=CARTESIAN_POINT('',(-0.0174768417611126,0.000759374523162842,0.0159));
#869=CARTESIAN_POINT('',(-0.0167068088649518,0.000759374523162842,0.0159));
#870=CARTESIAN_POINT('',(-0.0167068088649518,0.000759374523162842,0.0184));
#871=CARTESIAN_POINT('',(-0.0167068088649518,0.000759374523162842,0.0184));
#872=CARTESIAN_POINT('',(-0.0174768417611126,0.000759374523162842,0.0184));
#873=CARTESIAN_POINT('',(-0.0159468746572733,0.000109374523162842,0.0184));
#874=CARTESIAN_POINT('',(-0.0159468746572733,0.000109374523162842,0.0159));
#875=CARTESIAN_POINT('',(-0.0159468746572733,0.000109374523162842,0.0184));
#876=CARTESIAN_POINT('',(-0.00229687465727329,0.000109374523162842,0.0184));
#877=CARTESIAN_POINT('',(-0.0135468746572733,0.000109374523162842,0.0184));
#878=CARTESIAN_POINT('',(-0.00229687465727329,0.000109374523162842,0.0159));
#879=CARTESIAN_POINT('',(-0.0135468746572733,0.000109374523162842,0.0159));
#880=CARTESIAN_POINT('',(-0.0135468746572733,0.000109374523162842,0.0227));
#881=CARTESIAN_POINT('',(-0.0135468746572733,0.000109374523162842,0.0227));
#882=CARTESIAN_POINT('',(-0.013546877573154,0.00010937452316284,0.0227));
#883=CARTESIAN_POINT('',(-0.0135468746572733,0.000109374523162842,0.0227));
#884=CARTESIAN_POINT('',(0.012883092446566,0.000759374523162843,0.0184));
#885=CARTESIAN_POINT('',(0.012883092446566,0.000759374523162843,0.0159));
#886=CARTESIAN_POINT('',(0.0136531253427267,0.000759374523162843,0.0159));
#887=CARTESIAN_POINT('',(0.0121130595504053,0.000759374523162843,0.0159));
#888=CARTESIAN_POINT('',(0.0136531253427267,0.000759374523162843,0.0184));
#889=CARTESIAN_POINT('',(0.0136531253427267,0.000759374523162843,0.0184));
#890=CARTESIAN_POINT('',(0.012883092446566,0.000759374523162843,0.0184));
#891=CARTESIAN_POINT('',(0.0121130595504053,0.000759374523162843,0.0184));
#892=CARTESIAN_POINT('',(0.0121130595504053,0.000759374523162843,0.0184));
#893=CARTESIAN_POINT('',(0.0136531253427267,0.00338437452316284,0.0184));
#894=CARTESIAN_POINT('',(0.0136531253427267,0.00338437452316284,0.0159));
#895=CARTESIAN_POINT('',(0.0136531253427267,0.00338437452316284,0.0184));
#896=CARTESIAN_POINT('',(0.0136531253427267,-0.00316562547683716,0.0184));
#897=CARTESIAN_POINT('',(0.0136531253427267,-0.00316562547683716,0.0159));
#898=CARTESIAN_POINT('',(0.0136531253427267,-0.000540625476837159,0.0159));
#899=CARTESIAN_POINT('',(0.0136531253427267,-0.000540625476837159,0.0184));
#900=CARTESIAN_POINT('',(0.0136531253427267,-0.000540625476837159,0.0184));
#901=CARTESIAN_POINT('',(0.0136531253427267,-0.00316562547683716,0.0184));
#902=CARTESIAN_POINT('',(0.012883092446566,-0.000540625476837159,0.0184));
#903=CARTESIAN_POINT('',(0.012883092446566,-0.000540625476837159,0.0159));
#904=CARTESIAN_POINT('',(0.0121130595504053,-0.000540625476837158,0.0159));
#905=CARTESIAN_POINT('',(0.0121130595504053,-0.000540625476837158,0.0184));
#906=CARTESIAN_POINT('',(0.0121130595504053,-0.000540625476837158,0.0184));
#907=CARTESIAN_POINT('',(0.012883092446566,-0.000540625476837159,0.0184));
#908=CARTESIAN_POINT('',(0.0113531253427267,0.000109374523162842,0.0184));
#909=CARTESIAN_POINT('',(0.0113531253427267,0.000109374523162842,0.0159));
#910=CARTESIAN_POINT('',(0.0113531253427267,0.000109374523162842,0.0184));
#911=CARTESIAN_POINT('',(-0.00229687465727329,0.000109374523162842,0.0184));
#912=CARTESIAN_POINT('',(0.00895312534272671,0.000109374523162841,0.0184));
#913=CARTESIAN_POINT('',(-0.00229687465727329,0.000109374523162842,0.0159));
#914=CARTESIAN_POINT('',(0.00895312534272671,0.000109374523162841,0.0159));
#915=CARTESIAN_POINT('',(0.0089531253427267,0.000109374523162843,0.0227));
#916=CARTESIAN_POINT('',(0.0089531253427267,0.000109374523162843,0.));
#917=CARTESIAN_POINT('',(-0.00229687465727329,0.000109374523162842,0.0227));
#918=CARTESIAN_POINT('',(-0.00764687757315398,0.00010937452316284,0.0227));
#919=CARTESIAN_POINT('',(-0.00230272188679902,0.00260937452316284,0.0227));
#920=CARTESIAN_POINT('',(-0.00182479827203616,0.00260937452316284,0.0227));
#921=CARTESIAN_POINT('',(-0.00134687465727329,0.00260937452316284,0.0227));
#922=CARTESIAN_POINT('',(-0.00134687465727329,0.000109374523162843,0.0227));
#923=CARTESIAN_POINT('',(-0.00134687465727329,-0.00239062547683716,0.0227));
#924=CARTESIAN_POINT('',(-0.00182479827203616,-0.00239062547683716,0.0227));
#925=CARTESIAN_POINT('',(-0.00230272188679902,-0.00239062547683715,0.0227));
#926=CARTESIAN_POINT('',(-0.00764687757315398,0.00010937452316284,0.0227));
#927=CARTESIAN_POINT('',(0.0089531253427267,0.000109374523162843,0.0227));
#928=CARTESIAN_POINT('',(-0.00229687465727329,0.000109374523162842,0.0227));
#929=CARTESIAN_POINT('',(-0.00764687757315398,0.00010937452316284,0.0227));
#930=CARTESIAN_POINT('',(-0.0135468746572733,0.000109374523162842,0.0227));
#931=CARTESIAN_POINT('',(-0.0135468746572733,0.000109374523162842,0.));
#932=CARTESIAN_POINT('',(0.0089531253427267,0.000109374523162843,0.0227));
#933=CARTESIAN_POINT('',(-0.00229687465727329,0.000109374523162842,0.0227));
#934=CARTESIAN_POINT('',(-0.00764687757315398,0.00010937452316284,0.0227));
#935=CARTESIAN_POINT('',(-0.00229687465727329,0.000109374523162842,0.));
#936=CARTESIAN_POINT('',(-0.00764687757315398,0.00010937452316284,0.0267));
#937=CARTESIAN_POINT('',(-0.00230272188679902,-0.00239062547683715,0.0267));
#938=CARTESIAN_POINT('',(-0.00230272188679902,-0.00239062547683715,0.0267));
#939=CARTESIAN_POINT('',(-0.00764687757315398,0.00010937452316284,0.0267));
#940=CARTESIAN_POINT('',(-0.00230272188679902,0.00260937452316284,0.0267));
#941=CARTESIAN_POINT('',(-0.00230272188679902,0.00260937452316284,0.0267));
#942=CARTESIAN_POINT('',(-0.00182479827203616,-0.00239062547683716,0.0267));
#943=CARTESIAN_POINT('',(-0.00134687465727329,-0.00239062547683716,0.0267));
#944=CARTESIAN_POINT('',(-0.00134687465727329,-0.00239062547683716,0.0267));
#945=CARTESIAN_POINT('',(-0.00182479827203616,-0.00239062547683716,0.0267));
#946=CARTESIAN_POINT('',(-0.00134687465727329,0.000109374523162843,0.0267));
#947=CARTESIAN_POINT('',(-0.00134687465727329,0.00260937452316284,0.0267));
#948=CARTESIAN_POINT('',(-0.00134687465727329,0.00260937452316284,0.0267));
#949=CARTESIAN_POINT('',(-0.00134687465727329,0.000109374523162843,0.0267));
#950=CARTESIAN_POINT('',(-0.00182479827203616,0.00260937452316284,0.0267));
#951=CARTESIAN_POINT('',(-0.00182479827203616,0.00260937452316284,0.0267));
#952=CARTESIAN_POINT('',(-0.00619687611521363,0.000109374523162842,0.0267));
#953=CARTESIAN_POINT('',(-0.00764687757315398,0.000109374523162841,0.0267));
#954=CARTESIAN_POINT('',(-0.00534687757315398,0.000109374523162841,0.0267));
#955=CARTESIAN_POINT('',(-0.00764687757315398,0.000109374523162841,0.0299));
#956=CARTESIAN_POINT('',(-0.00764687757315398,0.000109374523162841,0.0299));
#957=CARTESIAN_POINT('',(-0.00534687757315398,0.000109374523162841,0.0299));
#958=CARTESIAN_POINT('',(-0.00764687757315398,0.00010937452316284,0.0299));
#959=MECHANICAL_DESIGN_GEOMETRIC_PRESENTATION_REPRESENTATION('',(#581),
#960);
#960=(
GEOMETRIC_REPRESENTATION_CONTEXT(3)
GLOBAL_UNCERTAINTY_ASSIGNED_CONTEXT((#961))
GLOBAL_UNIT_ASSIGNED_CONTEXT((#964,#963,#962))
REPRESENTATION_CONTEXT('Part 2','TOP_LEVEL_ASSEMBLY_PART')
);
#961=UNCERTAINTY_MEASURE_WITH_UNIT(LENGTH_MEASURE(1.E-8),#964,
'DISTANCE_ACCURACY_VALUE','Maximum Tolerance applied to model');
#962=(
NAMED_UNIT(*)
SI_UNIT($,.STERADIAN.)
SOLID_ANGLE_UNIT()
);
#963=(
NAMED_UNIT(*)
PLANE_ANGLE_UNIT()
SI_UNIT($,.RADIAN.)
);
#964=(
LENGTH_UNIT()
NAMED_UNIT(*)
SI_UNIT($,.METRE.)
);
#965=PRODUCT_DEFINITION_SHAPE('','',#966);
#966=PRODUCT_DEFINITION('','',#968,#967);
#967=PRODUCT_DEFINITION_CONTEXT('',#974,'design');
#968=PRODUCT_DEFINITION_FORMATION_WITH_SPECIFIED_SOURCE('','',#970,
 .NOT_KNOWN.);
#969=PRODUCT_RELATED_PRODUCT_CATEGORY('','',(#970));
#970=PRODUCT('Part 2','Part 2','Part 2',(#972));
#971=PRODUCT_CATEGORY('','');
#972=PRODUCT_CONTEXT('',#974,'mechanical');
#973=APPLICATION_PROTOCOL_DEFINITION('international standard',
'ap242_managed_model_based_3d_engineering',2020,#974);
#974=APPLICATION_CONTEXT('managed model based 3d engineering');
ENDSEC;
END-ISO-10303-21;
